<svg width="344" height="404" viewBox="0 0 344 404" fill="none" xmlns="http://www.w3.org/2000/svg">
<g filter="url(#filter0_d_1405_8203)">
<path d="M311.283 76.0572C318.223 153.644 321.643 195.959 323.306 260.278C320.919 285.263 316.379 296.059 298.326 305.352C225.688 336.602 175.008 360.658 115.553 383.255C90.4975 385.876 80.7535 380.517 70.9315 366.98C50.734 317.369 40.9439 261.46 21.8736 191.206C16.997 163.793 21.0126 151.886 41.3163 137.3C116.934 93.4207 227.227 32.5591 227.227 32.5591C227.227 32.5591 248.062 19.0069 261.54 20.0579C277.509 22.892 284.873 27.3604 294.529 37.0982C305.705 48.616 309.345 57.1577 311.283 76.0572Z" fill="url(#paint0_linear_1405_8203)"/>
</g>
<defs>
<filter id="filter0_d_1405_8203" x="0" y="0" width="343.305" height="403.9" filterUnits="userSpaceOnUse" color-interpolation-filters="sRGB">
<feFlood flood-opacity="0" result="BackgroundImageFix"/>
<feColorMatrix in="SourceAlpha" type="matrix" values="0 0 0 0 0 0 0 0 0 0 0 0 0 0 0 0 0 0 127 0" result="hardAlpha"/>
<feOffset/>
<feGaussianBlur stdDeviation="10"/>
<feComposite in2="hardAlpha" operator="out"/>
<feColorMatrix type="matrix" values="0 0 0 0 0 0 0 0 0 0 0 0 0 0 0 0 0 0 0.1 0"/>
<feBlend mode="normal" in2="BackgroundImageFix" result="effect1_dropShadow_1405_8203"/>
<feBlend mode="normal" in="SourceGraphic" in2="effect1_dropShadow_1405_8203" result="shape"/>
</filter>
<linearGradient id="paint0_linear_1405_8203" x1="195.843" y1="29.207" x2="17.342" y2="419.706" gradientUnits="userSpaceOnUse">
<stop offset="0.427885"/>
<stop offset="1" stop-color="#3C8ECB"/>
</linearGradient>
</defs>
</svg>
