<svg width="87" height="85" viewBox="0 0 87 85" fill="none" xmlns="http://www.w3.org/2000/svg">
<g clip-path="url(#clip0_1468_7714)">
<mask id="mask0_1468_7714" style="mask-type:luminance" maskUnits="userSpaceOnUse" x="5" y="54" width="76" height="31">
<path d="M5.78516 54.1738H80.709V85.0005H5.78516V54.1738Z" fill="white"/>
</mask>
<g mask="url(#mask0_1468_7714)">
<path fill-rule="evenodd" clip-rule="evenodd" d="M68.4015 54.1797L80.6401 75.0073C80.7095 75.1278 80.7013 75.2818 80.6139 75.3925C80.5265 75.5041 80.3787 75.5554 80.239 75.5165C77.2875 74.7382 67.439 72.1457 67.439 72.1457C67.439 72.1457 64.8002 81.8215 64.008 84.7221C63.9729 84.8594 63.8557 84.9577 63.7115 84.9789C63.5683 84.9957 63.4286 84.9276 63.3592 84.808L51.9605 65.4085C54.0811 64.4851 56.3882 63.5138 58.4737 62.7178C62.7842 61.0709 66.2548 58.0082 68.4015 54.1797ZM18.1215 54.1797L5.87847 75.0118C5.80908 75.1322 5.81719 75.2854 5.9046 75.3969C5.99202 75.5085 6.13982 75.5598 6.27501 75.5209C9.2265 74.7426 19.075 72.1501 19.075 72.1501C19.075 72.1501 21.7138 81.8259 22.506 84.7266C22.5456 84.8629 22.6583 84.9621 22.8025 84.9833C22.9458 85.0002 23.0855 84.932 23.1549 84.8116L34.5445 65.4298C32.3203 64.4594 29.96 63.458 28.0449 62.7222C23.7379 61.0709 20.2682 58.0082 18.1215 54.1797Z" fill="#3C8ECB"/>
</g>
<path fill-rule="evenodd" clip-rule="evenodd" d="M27.203 35.1485C28.1871 35.7559 29.0622 36.6493 29.9769 37.7189C31.1305 39.0709 32.2101 40.7514 33.2808 42.7454C33.7251 43.4343 34.4785 43.8699 35.3013 43.9133C36.1286 43.9602 36.9208 43.6096 37.4435 42.9721C39.0504 41.1543 40.696 39.5198 42.2245 37.9031C44.7758 35.2079 47.2749 32.4108 49.7308 30.3832C54.7505 26.2342 55.504 26.0199 57.7462 24.5873C59.2963 23.5947 60.9987 21.8496 59.8271 19.7874C59.2963 18.8507 56.8225 17.5163 53.5528 19.907C50.6924 21.9992 48.7899 23.338 46.3034 25.6179C44.1396 27.6021 42.0677 29.9635 39.3938 32.68C38.3754 33.715 36.3161 36.0764 35.3707 37.2824C34.5398 36.3589 33.708 35.5372 32.859 34.8448C31.4396 33.6814 30.0553 32.8128 28.6395 32.2824C27.8428 31.8929 26.8722 32.2134 26.4757 33.0049C26.0755 33.8009 26.4018 34.7589 27.203 35.1485Z" fill="#3C8ECB"/>
<path fill-rule="evenodd" clip-rule="evenodd" d="M43.2613 0.0342829C42.4475 0.00417871 41.6463 0.26095 41.0064 0.765637C41.0064 0.765637 41.0064 0.765637 41.0019 0.770064C35.2377 5.31668 28.8327 7.53288 18.1398 7.02819C18.1352 7.02819 18.1307 7.02819 18.1262 7.02819C16.9159 6.97683 15.7362 7.43017 14.8873 8.28105C14.0383 9.13282 13.5985 10.2998 13.6769 11.4889L15.7623 43.0151C16.2499 50.3853 21.039 56.8107 28.0451 59.4882C32.4592 61.1776 39.2301 64.2792 41.2497 65.2116C42.5304 65.8021 44.0147 65.7977 45.2908 65.1992L45.2818 65.2027C47.2023 64.3049 53.4712 61.4043 58.4739 59.4927C65.4799 56.8107 70.269 50.3897 70.7566 43.0195C71.4748 32.1501 72.559 15.7628 72.842 11.4933C72.9204 10.3042 72.4806 9.14079 71.6317 8.28991C70.7827 7.43814 69.603 6.98038 68.3927 7.03616C68.3882 7.03616 68.3837 7.03616 68.3792 7.03616C57.6862 7.54084 51.2812 5.32553 45.517 0.773606C44.8817 0.26095 44.076 -0.000248358 43.2613 0.0342829ZM43.2613 7.2761C49.1913 11.442 55.9054 13.7264 66.0414 13.6281L64.1254 42.5918C63.8037 47.4297 60.6602 51.647 56.0667 53.4054C51.4732 55.1639 45.8433 57.7218 43.2531 58.9233C40.5315 57.6749 34.5275 54.9629 30.4567 53.4054C25.8587 51.647 22.7152 47.4297 22.3971 42.5918L20.482 13.6281C30.6135 13.7308 37.3312 11.4464 43.2613 7.2761Z" fill="#3C8ECB"/>
</g>
<defs>
<clipPath id="clip0_1468_7714">
<rect width="86.5171" height="85" fill="white"/>
</clipPath>
</defs>
</svg>
